<?xml version="1.0" standalone="no"?><svg xmlns="http://www.w3.org/2000/svg" viewBox="0 0 1440 320"><path fill="#f3f4f5" fill-opacity="1" d="M0,128L26.7,149.3C53.3,171,107,213,160,208C213.3,203,267,149,320,144C373.3,139,427,181,480,197.3C533.3,213,587,203,640,176C693.3,149,747,107,800,96C853.3,85,907,107,960,101.3C1013.3,96,1067,64,1120,85.3C1173.3,107,1227,181,1280,213.3C1333.3,245,1387,235,1413,229.3L1440,224L1440,320L1413.3,320C1386.7,320,1333,320,1280,320C1226.7,320,1173,320,1120,320C1066.7,320,1013,320,960,320C906.7,320,853,320,800,320C746.7,320,693,320,640,320C586.7,320,533,320,480,320C426.7,320,373,320,320,320C266.7,320,213,320,160,320C106.7,320,53,320,27,320L0,320Z"></path></svg>